<?xml version="1.0" encoding="utf-8"?>
<!-- Generator: Adobe Illustrator 27.9.0, SVG Export Plug-In . SVG Version: 6.00 Build 0)  -->
<svg version="1.1" id="Layer_1" xmlns="http://www.w3.org/2000/svg" xmlns:xlink="http://www.w3.org/1999/xlink" x="0px" y="0px"
	 viewBox="0 0 418.26 382.97" style="enable-background:new 0 0 418.26 382.97;" xml:space="preserve">
<g>
	<path d="M357.38,71.23c1.3-7.11,2.45-14.08,3.9-20.98c0.47-2.22,1.53-4.4,2.7-6.38c1.72-2.93,5.29-4.46,8-3.82
		c2.97,0.7,6.15,3.93,6.31,7.12c0.25,4.85,0.06,9.72,0.06,14.2c0.29-0.64,0.79-1.83,1.34-2.99c2.22-4.6,4.41-9.25,8.68-12.41
		c2.25-1.66,4.72-2.67,7.57-1.81c3.89,1.17,6.29,5.45,5.01,9.86c-1.16,4.02-2.97,7.85-4.5,11.76c-0.2,0.52-0.45,1.02-0.75,1.7
		c2.72-1.59,5.16-3.28,7.82-4.47c1.8-0.8,3.96-1.38,5.88-1.21c4.4,0.39,6.85,4.49,5.07,8.69c-1.26,2.97-3.08,5.81-5.14,8.3
		c-3.22,3.88-6.89,7.37-10.3,11.09c-1.06,1.16-2.09,2.44-2.79,3.83c-3.54,7.05-8.07,13.19-15,17.31c-0.69,0.41-1.21,1.38-1.48,2.19
		c-7.1,21.51-16.29,42.05-28.52,61.17c-10.62,16.61-22.97,31.74-38.15,44.44c-0.67,0.56-1.19,1.39-1.95,1.76
		c-3.63,1.8-3.33,4.27-2.37,7.79c2.52,9.24,4.75,18.59,6.45,28.01c1.38,7.64,1.06,15.44,0.03,23.17
		c-1.11,8.29-3.51,16.18-7.09,23.72c-0.15,0.31-0.18,0.67-0.31,1.16c6.26-0.84,12.32-0.54,18.26,1.33c5.4,1.7,10.19,4.4,13.86,8.78
		c5.8,6.94,7.78,17.24-3.43,24.22c-2.99,1.86-6.14,2.89-9.64,3.09c-3.56,0.2-7.12,0.9-10.66,0.77c-6.42-0.23-12.82-0.88-19.23-1.41
		c-6.04-0.5-12.08-1.06-18.12-1.59c-1.09-0.1-2.18-0.21-3.27-0.3c-2.47-0.2-4.86-0.27-7.28,0.78c-9.28,4.02-19.14,5.86-29.07,7.45
		c-10.73,1.72-21.53,2-32.37,1.72c-2.11-0.05-4.22-0.24-6.68-0.39c0.76,1.12,1.41,2.03,2.02,2.96c2.15,3.32,3.53,6.83,3,10.91
		c-0.57,4.29-2.96,7-6.92,8.48c-0.58,0.22-1.26,0.43-1.65,0.87c-3.2,3.47-7.12,4.31-11.59,3.38c-0.61-0.13-1.45-0.3-1.86-0.01
		c-4.05,2.89-8.42,1.98-12.66,0.94c-18.19-4.45-34.75-12.48-49.95-23.32c-4.23-3.01-4.85-7.07-2.27-12.01
		c0.2-0.38,0.44-0.73,0.81-1.33c-34.67,2.18-69.25,2.62-103.26,9.57c16.07-4.72,32.52-7.06,49.42-8.54
		c-9.37-2.04-18.46-3.02-27.82-2.28c-10.28,0.82-20.62,0.78-30.94,1.1c-1.44,0.04-2.88,0.01-4.32,0.01
		c-0.02-0.2-0.04-0.39-0.06-0.59c12.82-1.27,25.63-2.54,38.35-3.81c-0.17-0.08-0.57-0.3-0.99-0.46c-9.74-3.69-19-8.2-26.74-15.37
		c-6.27-5.81-10.87-12.74-10.93-21.45c-0.1-12.94,4.5-19.32,16-23.78c8.34-3.23,17.03-3.61,25.86-2.74
		c12.27,1.2,23.9,4.7,34.49,10.82c8.37,4.84,16.1,10.79,24.13,16.25c-0.15,0.29,0.02,0.12,0.01-0.05
		c-0.47-17.22,3.69-33.65,8.66-49.92c1.82-5.97,3.92-11.86,5.98-17.75c0.36-1.03,0.46-1.65-0.52-2.41
		c-24.08-18.95-43.74-41.69-58.72-68.44c-3.49-6.23-6.75-12.58-10.13-18.87c-0.23-0.44-0.51-0.86-0.98-1.64
		c-0.82,2.9-1.6,5.45-2.26,8.02c-1.56,6.07-4.29,8.17-10.59,8.06c-5.3-0.1-10.73-3.42-11.48-7.75c-0.45-2.6,0.11-5.49,0.7-8.14
		c1.18-5.31,2.66-10.56,4.07-15.82c0.3-1.14,0.19-1.94-0.67-2.92c-3.95-4.56-5.26-9.64-2.55-15.36c0.23-0.49,0.28-1.26,0.06-1.75
		c-2.45-5.71-1.56-9.95,2.92-14.21c0.42-0.4,0.55-1.39,0.43-2.03c-1.4-7.21,1.44-12.15,8.09-13.94c0.21-0.06,0.44-0.22,0.63-0.18
		c3.14,0.65,3.51-1.44,4.1-3.77c2.19-8.58,4.38-17.17,6.97-25.64c0.98-3.21,2.89-6.18,4.62-9.11c5.83-9.84,11.77-19.61,18.02-29.32
		c0,2.42,0.04,4.85-0.01,7.27c-0.23,11.2-0.26,22.41-0.85,33.59c-0.24,4.42-1.67,8.8-2.72,13.16c-1.36,5.64-2.88,11.25-4.3,16.73
		c2.09,0.93,4.12,1.56,5.86,2.65c5.1,3.18,6.43,8.38,6.45,13.84c0.01,4.49-0.87,8.99-1.18,13.49c-0.07,1.06,0.23,2.36,0.84,3.21
		c10.24,14.24,21.61,27.49,35.1,38.78c6.89,5.76,14.09,11.15,21.16,16.71c0.33,0.26,0.71,0.46,1.16,0.74
		c-4.63-18.56-7.33-20.21,0.56-54.83c-3.14-2.03-6.39-3.75-9.19-6.01c-9.04-7.32-10.77-21.2-3.96-30.13
		c4.35-5.71,11.67-7.74,19.1-4.69c3.44,1.41,6.54,3.75,9.62,5.92c1.64,1.16,2.9,2.87,4.12,4.11c30.82-26.66,64.7-32.62,101.73-16.68
		c2.87-1.86,5.41-4.39,8.44-5.29c8.75-2.59,15.6,1.67,17.8,10.93c1.2,5.07,0.53,10.03-1.85,14.66c-0.69,1.34-0.63,2.27,0.17,3.55
		c3.46,5.47,6.78,11.02,10.1,16.46c6.09-1.86,12.43-3.79,18.78-5.73c0.06,0.19,0.13,0.38,0.19,0.57c-6.05,2.56-12.09,5.11-18.21,7.7
		c1.3,3.39,2.42,6.53,3.75,9.57c0.23,0.52,1.34,0.85,2.07,0.92c5.65,0.52,11.32,0.94,16.97,1.42c0.37,0.03,0.72,0.3,1,0.87
		c-6.24,0-12.47,0-19.25,0c3.94,13.63,1.94,26.53-2.37,39.43c3.21-3.04,6.47-6.02,9.62-9.12c12.08-11.86,23.34-24.43,32.52-38.72
		c3.87-6.03,7.11-12.33,8.16-19.6c0.98-6.83-0.03-13.19-3.51-19.16c-0.95-1.64-1.93-3.27-2.71-4.99c-1.28-2.84-1.97-5.9,0.35-8.43
		c2.37-2.58,5.53-2.97,8.88-1.98c5.63,1.67,8.9,5.82,11.42,10.77C356.19,68.53,356.75,69.85,357.38,71.23z M137.98,277.29
		c0.2-0.39,0.24-0.63,0.39-0.75c0.4-0.32,0.82-0.6,1.26-0.86c8.45-5.05,17.43-5.3,26.57-2.57c24.86,7.4,31.81,37.7,20.82,56.77
		c-1.61,2.79-3.74,5.28-5.67,7.96c4.91,1.05,9.4,3.03,13.37,6.16c0.36,0.29,0.92,0.44,1.4,0.46c6.58,0.29,13.16,0.87,19.73,0.72
		c6.85-0.15,13.7-0.84,20.51-1.61c9.34-1.05,18.52-2.89,27.39-6.12c13.79-5.02,25.52-12.88,34.04-24.98
		c13.29-18.87,16.37-39.84,12.22-62.15c-2.62-14.05-6.93-27.61-12.36-40.83c-1.44-3.5-2.75-7.05-4.12-10.58
		c5.8,5.94,9.73,12.95,12.54,20.9c4.49-4.09,8.79-7.85,12.92-11.78c11.67-11.11,21.21-23.96,29.77-37.52
		c11.25-17.82,19.61-37.02,26.48-56.89c0.45-1.31,0.48-2.76,0.78-4.63c8.62-3.3,13.97-10.46,17.48-19.32
		c0.2-0.51,0.59-1.02,1.03-1.35c5.88-4.38,10.44-9.99,14.73-15.84c0.79-1.09,1.36-2.43,1.68-3.75c0.42-1.74-0.56-2.96-2.33-2.77
		c-1.69,0.18-3.46,0.61-4.95,1.4c-5.56,2.97-9.97,7.37-14.19,11.96c-0.31,0.34-0.15,1.41,0.15,1.94c0.53,0.95,1.33,1.75,2.01,2.61
		c-0.14,0.17-0.28,0.33-0.43,0.5c-7.02-7.12-15.22-11.81-25.42-12.39c0.02-0.28,0.04-0.55,0.06-0.83c1.87-0.22,3.74-0.43,5.74-0.66
		c0.1-0.26,0.32-0.64,0.39-1.04c0.82-4.66,1.84-9.29,2.34-13.99c0.3-2.85,0-5.82-0.5-8.65c-0.17-0.95-1.66-1.94-2.76-2.39
		c-1.41-0.58-2.5,0.42-3.19,1.66c-0.77,1.4-1.71,2.76-2.18,4.27c-2.43,7.76-3.28,15.8-4.06,23.85c-0.14,1.45,0.44,2.31,1.57,3.07
		c2.81,1.88,4.86,4.45,6.07,7.58c1.15,2.97,2.16,6.03,0.96,9.86c-0.35-1.34-0.53-2.11-0.75-2.87c-1.71-5.84-5.02-10.37-10.84-12.61
		c-2.18-0.84-3.42-2.35-4.35-4.33c-1.34-2.83-2.57-5.72-4.12-8.42c-1.72-3-4.23-5.31-7.74-5.97c-1.12-0.21-2.71,0.16-3.53,0.88
		c-0.58,0.51-0.5,2.16-0.2,3.16c0.42,1.44,1.22,2.79,1.99,4.1c5.12,8.71,5.99,17.98,3.53,27.63c-2.05,8.05-6.35,15.01-11.11,21.66
		c-11.55,16.14-25.05,30.52-39.9,43.64c-4.26,3.76-8.6,7.33-11.86,12.17c-2.52,3.75-6.03,6.79-10.09,9.05
		c0.19-0.65,0.51-1.19,0.89-1.68c8.74-11.41,15.52-23.75,18.11-38.09c1.32-7.29,1.09-14.53-0.86-21.68
		c-0.15-0.56-0.81-1.35-1.28-1.38c-2.21-0.15-4.43-0.07-6.46-0.07c0.46,2.7,1.29,5.07,1.2,7.4c-0.32,7.97-4.14,13.78-11.41,17.3
		c-0.89,0.43-1.77,1.41-2.13,2.34c-4.76,12.38-10.92,23.85-20.69,33.09c-11.74,11.1-28.05,12.48-41.3,3.27
		c-11.75-8.17-19.31-19.53-24.03-32.84c-2-5.63-3.44-11.45-5.16-17.24c-1.47,1.32-3.17,2.86-4.91,4.43
		c-0.79-2.23,0.67-5.17,3.53-7.42c2.96-2.33,5.85-2.84,8.25-1.35c-0.65,0.4-1.25,0.75-1.84,1.13c-0.58,0.37-1.14,0.77-1.84,1.25
		c0.8,0.62,1.41,1.14,2.05,1.6c10.35,7.31,21.83,11.66,34.48,12.49c8.64,0.56,16.85-1.09,24.06-6.28c1.95-1.4,3.48-3.09,3.74-5.73
		c-0.8-0.22-1.56-0.44-2.31-0.65c-7.19-1.96-13.43-5.46-18.58-10.96c-8.26-8.83-4.96-19.06,4.35-23.7
		c6.09-3.03,12.63-3.39,19.24-2.52c1.43,0.19,2.19,0.13,3-1.18c1.49-2.38,3.38-3.05,5.8-2.49c2.1,0.49,4.33,2.7,4.22,5.03
		c-0.13,2.89,1.04,4.97,2.7,7.09c0.92,1.18,1.75,2.62,2.04,4.06c0.44,2.15,1.06,4.65,0.39,6.57c-2.76,7.88-7.73,13.98-15.65,17.34
		c-0.61,0.26-1.26,0.77-1.58,1.33c-0.78,1.39-1.31,2.92-2.06,4.33c-0.53,1.01-0.33,1.57,0.68,2.07c5.47,2.7,11.07,4.28,17.3,3.16
		c10.19-1.82,17-11.1,15.14-21.01c-0.16-0.83-0.8-1.58-1.33-2.57c0.1-0.18,0.39-0.72,0.39-0.73c3.02-0.47,5.74-0.9,8.8-1.37
		c-1.21-3.01-2.34-5.84-3.51-8.76c-3.94,1.87-7.55,3.58-11.15,5.29c-0.14-0.24-0.28-0.48-0.42-0.71c3.43-2.24,6.87-4.49,10.39-6.79
		c-0.16-0.37-0.25-0.71-0.43-1.01c-3.44-5.75-6.61-11.68-10.4-17.18c-5.26-7.62-11.35-14.56-19.73-18.99
		c-16.83-8.9-34.66-11.61-53.38-8.39c-16.85,2.9-31.49,10.21-43.77,22.18c-1.39,1.36-2.89,2.6-4.44,3.99
		c-0.62-0.84-1.08-1.49-1.57-2.12c-3.46-4.54-7.46-8.42-12.91-10.53c-6.38-2.48-11.65-1.29-15.3,3.59
		c-2.94,3.93-3.57,8.47-2.72,13.12c1.43,7.84,6.6,12.59,13.69,15.51c1.57,0.65,3.24,1.06,4.9,1.59c-3.15,8.87-5.5,17.74-6.21,27.05
		c-0.81,10.54,0.64,20.64,4.63,30.39c1.19,2.9,2.73,5.61,5.29,7.65c3.26,2.59,6.45,5.28,9.61,8c1.5,1.29,2.88,2.71,4.28,4.1
		c1.33,1.33,2.62,2.71,3.93,4.07c-0.79,0.05-1.3-0.2-1.77-0.5c-17.44-10.99-34.2-22.93-50.02-36.17
		c-13.83-11.57-25.67-24.95-36.06-39.66c-2.11-2.99-2.52-6.05-1.87-9.51c0.9-4.81,1.61-9.65,0.6-14.57c-1-4.91-5.23-8.25-10.08-7.91
		c-5.77,0.41-12.16,7.95-11.61,13.69c0.44,4.56,4.11,6.35,7.77,3.54c1.75-1.34,2.99-3.34,4.46-5.04c0.37-0.43,0.73-0.87,1.37-1.64
		c0.62,4.59-0.79,7.94-4.14,9.95c-2.86,1.71-3.67,4.17-3.51,6.95c0.17,3,1.04,5.96,1.6,8.94c-0.07,0.15-0.15,0.29-0.22,0.44
		c-0.97-1.12-1.94-2.23-2.98-3.44c-1.26,5.11-2.45,10.26-3.84,15.35c-0.5,1.83-0.29,3.38,0.51,5.03
		c6.27,12.86,13.16,25.37,20.99,37.33c13.87,21.18,31.17,39.23,50.72,55.2c1.7,1.39,3.41,2.75,5.12,4.12
		c-0.08,0.14-0.17,0.28-0.25,0.42c-1.56-0.44-3.11-0.87-4.69-1.32c-5.98,17.06-11.31,34.09-13.6,51.94
		c-1.12,8.76-1.2,17.53,0.35,26.21c2.16,12.03,6.73,22.81,17.2,30.14c-0.48,0.52-1.05,1.01-1.46,1.6
		c-2.84,4.01-3.97,7.28,1.32,10.83c10.33,6.93,21.32,12.57,32.86,17.13c6.29,2.49,12.68,4.78,19.58,4.85
		c3.53,0.04,4.48-1.3,3.27-4.75c-1.32-3.77-3.84-6.72-6.9-9.16c-2.04-1.63-4.28-2.99-6.51-4.53c7.64,0.13,16.59,7.72,17.85,15.11
		c0.24,1.38,0.72,2.39,2.23,2.42c2.77,0.06,5.2-0.81,6.91-3.08c1.65-2.19,1.19-4.57-0.27-6.5c-1.92-2.55-4.1-4.94-6.42-7.13
		c-1.85-1.75-4.08-3.11-6.14-4.64c0.12-0.15,0.24-0.3,0.37-0.44c8.07,2.65,15.2,6.42,17.68,15.64c2.35-2.55,2.65-6.15,0.57-9.7
		c-5.03-8.56-12.73-13.43-22.23-15.68c-0.56-0.13-1.25,0.19-1.86,0.36c-3.97,1.12-7.88,2.53-11.91,3.29
		c-2.69,0.51-5.55,0.1-8.33,0.1c0-0.19,0-0.38,0-0.57c2.25-0.5,4.53-0.9,6.75-1.53c6.72-1.9,13.22-4.28,17.9-9.85
		c7.5-8.93,8.95-19.44,6.68-30.34c-4.05-19.51-22.05-30.81-41.5-26.61C143.03,275.96,140.6,276.64,137.98,277.29z M339.53,330.94
		c0.34-1.33,0.93-2.66,0.99-4c0.25-5.43-2.46-9.52-6.49-12.74c-7.09-5.67-15.4-6.9-24.16-6.12c-3.22,0.29-5.48,1.77-7.28,4.69
		c-5.71,9.24-13.57,16.36-22.87,21.93c-0.37,0.22-0.71,0.49-1.12,0.78c3.83,0.35,7.46,0.69,11.1,1.02c3.71,0.34,7.41,0.7,11.12,0.98
		c6.11,0.46,12.22,0.95,18.34,1.24c3,0.14,4.58-1.92,3.59-4.72c-0.66-1.87-1.72-3.71-3.01-5.22c-3.15-3.72-7.39-5.86-11.94-7.49
		c4.63-0.65,8.56,1.02,12.23,3.5c4.55,3.08,7.14,7.22,6.39,13.46c2.2-0.6,4.03-0.95,5.74-1.6c2.19-0.83,3.33-2.48,3.14-4.94
		c-0.34-4.33-2.36-7.81-5.65-10.45c-2.85-2.28-5.97-4.21-8.79-6.17C328.71,315.04,336.62,321.73,339.53,330.94z M196.42,165.43
		c5.68,8.5,12.6,15.35,22.51,18.57c3.77,1.23,7.59,1.24,11.39,0.03c1.41-0.45,1.91-1.1,1.26-2.71
		C225.13,165.2,209.8,162.12,196.42,165.43z M23.91,295.38c5.76,4.36,10.96,8.32,16.21,12.23c0.38,0.28,1.14,0.34,1.6,0.17
		c5.41-1.95,10.8-3.96,16.29-5.98c-4.43-3.55-8.87-7.07-13.26-10.66c-1.17-0.95-2.23-1.27-3.77-0.78c-2.96,0.95-6.02,1.58-9.02,2.44
		C29.49,293.5,27.06,294.36,23.91,295.38z M43.42,309.71c0,0.26-0.01,0.52-0.01,0.78c5.29,3.61,10.55,7.26,15.88,10.81
		c0.7,0.47,1.91,0.89,2.56,0.6c4.85-2.18,9.62-4.54,14.32-6.8c-4.92-3.63-9.95-7.36-15.01-11.05c-0.29-0.21-0.84-0.29-1.18-0.17
		C54.44,305.79,48.93,307.76,43.42,309.71z M38.36,309.2c-5.16-4.19-10.18-8.31-15.26-12.36c-0.45-0.36-1.38-0.55-1.87-0.34
		c-2.99,1.3-5.99,2.62-8.85,4.18c-2.45,1.34-2.45,1.79-0.93,4.02c3.31,4.86,7.72,8.54,12.61,11.68c0.38,0.24,1.14,0.28,1.53,0.06
		C29.84,314.08,34.05,311.65,38.36,309.2z M62.48,323.4c4.51,2.64,8.38,4.97,12.32,7.18c0.98,0.55,2.19,1.04,3.27,1
		c5.11-0.17,10.22-0.51,15.33-0.84c2.24-0.15,4.47-0.43,6.8-0.67c-7.03-4.37-13.87-8.64-20.74-12.87c-0.44-0.27-1.17-0.43-1.61-0.26
		C72.89,318.98,67.95,321.09,62.48,323.4z M46.44,289.15c-0.09,0.2-0.17,0.41-0.26,0.61c4.64,3.63,9.27,7.28,13.96,10.84
		c0.45,0.34,1.37,0.22,2.03,0.1c3.43-0.62,6.83-1.35,10.26-1.97c2.72-0.49,5.46-0.88,8.59-1.37c-4.15-3.51-7.92-6.73-11.74-9.9
		c-0.4-0.34-1.05-0.51-1.59-0.53C60.5,286.67,53.45,287.71,46.44,289.15z M10.7,284.33c3.75,3.08,7.24,5.96,10.76,8.81
		c0.28,0.22,0.84,0.32,1.18,0.2c5.8-1.94,11.58-3.92,17.58-5.97c-4.22-3.48-8.31-6.88-12.43-10.24c-0.42-0.34-1.06-0.79-1.49-0.69
		C20.56,277.73,15.26,279.94,10.7,284.33z M224.95,149.48c0.57,4.03,1.62,8.24,3.74,12.1c0.49,0.89,1.49,1.93,2.4,2.09
		c2.68,0.47,5.43,0.58,8.16,0.74c1.37,0.08,1.86-0.82,2.01-2.07c0.4-3.33,0.91-6.65,1.28-9.98c0.35-3.15,0.59-6.31,0.84-9.14
		C237.3,145.27,231.3,147.32,224.95,149.48z M80.85,315.52c6.74,4.15,12.95,7.79,18.96,11.73c3.34,2.19,6.66,2.89,10.3,1.58
		c-1.67-3.96-3.33-7.95-5.06-11.92c-0.24-0.56-0.75-1.06-1.25-1.45c-1.65-1.31-3.31-2.63-5.06-3.8c-0.72-0.48-1.8-1.03-2.51-0.83
		C91.29,312.22,86.4,313.8,80.85,315.52z M58.53,323.33c-5.72-3.97-11.27-7.83-16.85-11.65c-0.48-0.33-1.32-0.63-1.77-0.44
		c-4.55,2.03-9.05,4.17-13.83,6.39c7.54,4.89,15.41,7.77,23.61,9.83c0.62,0.16,1.46,0.04,2.03-0.26
		C53.96,326.02,56.13,324.71,58.53,323.33z M94.92,308.78c-3.37-2.77-6.72-5.42-9.95-8.22c-1.27-1.1-2.58-1.6-4.18-1.33
		c-5.83,0.98-11.65,1.99-17.48,2.99c0.09,0.56,0.06,0.77,0.14,0.82c4.87,3.45,9.73,6.92,14.67,10.27c0.56,0.38,1.64,0.28,2.38,0.05
		C85.21,311.93,89.88,310.4,94.92,308.78z M386.33,76.1c3.24-6.35,6.57-12.64,9.64-19.05c0.82-1.71,1.16-3.77,1.21-5.69
		c0.09-2.96-2.7-4.45-5.14-2.78c-1.6,1.09-3.14,2.45-4.27,4.01c-4.23,5.83-6.29,12.67-8.91,19.35
		C381.27,73.28,383.54,74.54,386.33,76.1z M65.48,284.43c-0.29-0.27-0.83-0.85-1.44-1.33c-2.72-2.11-4.99-4.86-8.78-5.36
		c-4.24-0.57-8.42-1.76-12.67-2.12c-4.13-0.35-8.32,0.02-12.48,0.07c-0.03,0.22-0.06,0.45-0.09,0.67c4.1,3.37,8.17,6.77,12.34,10.06
		c0.57,0.45,1.64,0.47,2.44,0.38C51.74,286.04,58.67,285.22,65.48,284.43z M246.11,143.37c-0.12,0.41-0.34,0.94-0.44,1.49
		c-0.44,2.51-0.88,5.01-1.26,7.53c-0.5,3.31-1.01,6.61-1.33,9.94c-0.06,0.61,0.6,1.75,1.13,1.88c3.33,0.87,7.21-0.73,9.16-3.67
		c2.78-4.19,4-8.93,4.91-13.58C254.16,145.74,250.21,144.58,246.11,143.37z M29.06,117.64c2.36-2.39,5.2-2.55,8.23-1.58
		c1.03,0.33,2.07,0.66,3.07,1.07c2.12,0.86,4,0.64,5.5-1.17c1.26-1.52,1.13-4.22-0.27-6.09c-2.45-3.26-5.99-4.42-9.82-4.97
		c-3.7-0.53-6.81,0.66-8.22,3.14C25.99,110.81,26.58,114.82,29.06,117.64z M60.66,27.62c-3.29,6.71-8.33,12.44-10.35,20.21
		c1.7-0.71,3.04-1.09,4.19-1.8c1.87-1.15,3.28-0.88,4.82,0.66c1.46,1.47,3.21,2.66,5.1,4.19c0.26-1.4,0.56-2.37,0.6-3.35
		c0.19-4.46,0.31-8.92,0.44-13.38c0.13-4.55,0.13-4.55-4.02-6.37C61.3,27.73,61.15,27.73,60.66,27.62z M50.52,103.23
		c-4.42-2.14-6.2-4.8-6.61-9.45c-0.05-0.59-0.47-1.51-0.92-1.65c-3.65-1.14-7.37-1.92-11.13-0.5c-4.67,1.76-6.49,6.3-4.2,10.31
		c7.81-2.94,13.84-1.29,21.82,6.01C49.83,106.37,50.16,104.85,50.52,103.23z M273.99,82.14c1.79-4.14,2.56-8.31,1.34-12.69
		c-1.09-3.9-3.38-6.94-7.4-7.85c-3.7-0.84-7.02,0.44-9.7,3.28c-0.88,0.93-0.89,1.45,0.11,2.26c1.52,1.23,2.93,2.6,4.38,3.9
		c4.1-2.1,7.46-1.19,8.09,2.19c-3.22-1.55-4.26-1.63-5.75-0.53C267.98,75.79,270.92,78.9,273.99,82.14z M58.46,48.59
		c-0.24,0.26-0.39,0.34-0.41,0.45c-2.16,9.4-4.33,18.8-6.41,28.22c-0.1,0.44,0.55,1.38,1.03,1.55c1.18,0.39,4.95-2.14,5.28-3.4
		c1.81-6.95,3.63-13.89,5.4-20.86c0.13-0.52,0.06-1.36-0.27-1.7C61.61,51.37,60.02,50.01,58.46,48.59z M56.57,47.32
		c-1.67,0.77-2.75,1.4-3.91,1.77c-2.42,0.76-3.64,2.39-4.18,4.8c-0.69,3.11-1.57,6.18-2.36,9.27c-0.9,3.55-1.8,7.1-2.66,10.54
		c2.18,0.93,4.08,1.74,6.06,2.58C51.87,66.65,54.18,57.15,56.57,47.32z M49.27,81.91c-2.07-2.98-6.68-4.98-10.86-4.59
		c-4.91,0.46-8.95,3.7-6.97,9.64c2.27,0,4.46-0.19,6.59,0.05c2.21,0.25,4.37,0.93,6.61,1.43c0.6-1.07,1.2-2.32,1.98-3.44
		C47.41,83.89,48.39,82.92,49.27,81.91z M34.53,151.95c1.46-0.55,3.32-0.7,4.13-1.69c1.25-1.54,2.14-3.61,2.43-5.57
		c0.1-0.7-1.87-1.98-3.1-2.54c-1.96-0.89-4.06-1.58-6.16-2.03c-4.53-0.96-4.55-0.87-5.62,3.67c-0.7,2.93,0.13,5.04,2.84,6.34
		C30.72,150.93,32.58,151.32,34.53,151.95z M9.99,285.62c-4.16,3.58-3.49,10.06-0.29,15.06c3.32-2.16,6.65-4.32,10.11-6.57
		C16.54,291.29,13.3,288.48,9.99,285.62z M256.39,105.24c-1.16-0.84-2.21-1.97-3.51-2.47c-6.9-2.67-13.81-2.38-20.63,0.38
		c-1.84,0.74-3.31,1.96-3.86,4.23C237.63,104.96,246.83,104.96,256.39,105.24z M86.23,298.96c3.38,2.8,6.46,5.24,9.39,7.83
		c1.55,1.37,3.05,2.22,5.08,1.26c0.72-0.34,2.03-0.81,2-1.09c-0.12-0.9-0.52-1.97-1.18-2.56c-1.89-1.71-4.04-3.13-5.93-4.84
		c-1.28-1.16-2.66-1.37-4.23-1.19C89.84,298.54,88.33,298.72,86.23,298.96z M42.15,140.58c0.18-0.69,0.62-1.86,0.76-3.06
		c0.08-0.68-0.1-1.83-0.54-2.08c-4.08-2.28-8.47-3.55-13.22-3.68c-0.42,1.84-0.78,3.44-1.02,4.47
		C32.99,137.74,37.57,139.16,42.15,140.58z M39.11,120.55c-1.95-0.39-3.61-0.89-5.31-0.99c-0.65-0.04-1.79,0.67-1.97,1.25
		c-0.8,2.66-1.33,5.4-1.96,8.13c2.32,0.36,4.44,0.68,6.71,1.04C37.4,126.93,38.2,123.96,39.11,120.55z M72.29,287.09
		c3.39,2.86,6.66,5.23,9.44,8.07c2.79,2.87,5.86,1.63,8.95,1.55c-3.48-2.76-7.11-5.17-10.54-7.84
		C77.89,287.12,75.52,286.66,72.29,287.09z M40.64,121.64c-0.46,1.75-0.99,3.69-1.47,5.64c-0.72,2.91-0.7,2.91,2.17,4.01
		c0.81,0.31,1.58,0.69,2.6,1.14c0.87-3.84,1.74-7.66,2.59-11.41C44.48,121.24,42.65,121.43,40.64,121.64z M71.5,331.53
		c0.04-0.16,0.07-0.31,0.11-0.47c-3.41-2.05-6.82-4.1-10.23-6.13c-0.24-0.14-0.62-0.29-0.82-0.19c-2.28,1.07-4.55,2.19-6.81,3.3
		c0.07,0.25,0.14,0.5,0.21,0.75C59.79,329.7,65.64,330.61,71.5,331.53z M75.93,285.25c-3.77-1.6-6.96-2.95-10.16-4.3
		C68.27,283.96,70.99,286.44,75.93,285.25z M99.66,309.96c1.57,1.22,2.88,2.24,4.46,3.47C103.12,308.82,103.12,308.82,99.66,309.96z
		"/>
	<path d="M346.77,251.74c5.85-4.47,11.58-9.1,17.57-13.38c9.96-7.12,20.06-14.05,30.17-20.96c1.52-1.04,3.41-1.55,5.16-2.2
		c0.41-0.15,0.96,0.1,1.53,0.49c-17.07,13.73-35.69,24.93-53.99,36.62C347.06,252.12,346.92,251.93,346.77,251.74z"/>
	<path d="M358.26,268.42c1.12-0.65,2.23-1.32,3.36-1.94c15.2-8.33,30.76-15.91,46.83-22.43c3.55-1.44,4.08-1.37,6.12-0.4
		c-1.18,0.86-2.12,1.81-3.25,2.32c-9.79,4.46-19.58,8.92-29.44,13.21c-7.71,3.36-15.52,6.5-23.29,9.74
		C358.48,268.75,358.37,268.59,358.26,268.42z"/>
	<path d="M374.36,194.2c-1.02,3.48-32.69,37.13-38.62,40.57c1.69-2.07,3.29-4.23,5.08-6.21c9.63-10.61,19.28-21.19,28.98-31.72
		C370.98,195.58,372.24,194.14,374.36,194.2z"/>
	<path d="M67.76,253.22c-4.4-2.52-8.82-5-13.19-7.56c-9.67-5.69-19.34-11.38-28.96-17.16c-1.69-1.02-3.14-2.46-4.69-3.7
		c0.13-0.31,0.26-0.62,0.39-0.93c0.79,0.1,1.68,0,2.35,0.35c3.1,1.61,6.25,3.17,9.16,5.07c11.3,7.36,22.52,14.85,33.76,22.3
		c0.54,0.36,1.02,0.8,1.53,1.21C67.99,252.93,67.87,253.08,67.76,253.22z"/>
	<path d="M83.04,238.25c-12.26-10.05-25.23-19.29-36.08-30.96c0.17-0.27,0.33-0.54,0.5-0.81c0.69,0.21,1.48,0.27,2.04,0.66
		c2.69,1.87,5.53,3.6,7.93,5.8c8.25,7.57,16.34,15.32,24.48,23c0.59,0.56,1.11,1.2,1.67,1.8C83.4,237.91,83.22,238.08,83.04,238.25z
		"/>
	<path d="M102.41,346.51c-24.6,2.93-49.08,6.62-73.25,12.14C37.58,353.72,90.05,345.05,102.41,346.51z"/>
	<path d="M405.28,309.4c-13.84,0.42-27.53-1.43-41.72-2.45C368.81,304.5,402.74,306.38,405.28,309.4z"/>
	<path d="M364.32,285.49c15.1-3.63,30.27-6.71,45.82-7.01c0.09,0.35,0.17,0.7,0.26,1.05c-1.07,0.4-2.11,1.02-3.21,1.15
		c-7.88,0.96-15.77,1.8-23.65,2.72c-5.71,0.66-11.42,1.39-17.13,2.07C365.72,285.56,365.01,285.49,364.32,285.49z"/>
	<path d="M333.32,367.53c-16.66-5.72-33.36-11.45-49.46-16.98C291.53,350.23,324.25,361.3,333.32,367.53z"/>
	<path d="M290.29,371.4c-14.33-5.09-28.66-10.18-42.99-15.27C262.47,358.89,276.9,363.76,290.29,371.4z"/>
	<path d="M51.03,367.04c13.72-5.37,27.88-8.82,42.55-10.06C79.4,360.33,65.22,363.68,51.03,367.04z"/>
	<path d="M379.71,355.89c-12.15-3.35-24.08-6.64-35.86-9.89C348.99,345.12,374.72,352.09,379.71,355.89z"/>
	<path d="M394.74,331.67c-12.74-1.4-25.47-2.79-37.91-4.16C363.93,326.2,385.44,328.39,394.74,331.67z"/>
	<path d="M7.89,253.66c3.23-1.34,21.1,3.5,26.45,6.93C25.61,258.58,16.74,257.07,7.89,253.66z"/>
	<path d="M257.16,374.79c-9.19-4.74-18.39-9.47-27.58-14.21c10.16,2.86,19.37,7.58,27.86,13.74
		C257.34,374.48,257.25,374.63,257.16,374.79z"/>
	<path d="M390.98,343.12c-11.27-2.04-22.17-4.01-32.75-5.92C363.4,336.48,383.33,339.29,390.98,343.12z"/>
	<path d="M108.25,365.14c-9.19,2.51-18.37,5.01-27.56,7.52C89.34,368.34,98.62,366.3,108.25,365.14z"/>
	<path d="M359.88,363.95c-6.45-2.1-12.91-4.2-19.36-6.3C347.41,358.35,353.9,360.29,359.88,363.95z"/>
	<path d="M188.04,104.49c0.05-0.73,0.02-1.47,0.15-2.18c0.66-3.43,3.04-5.93,5.89-6.22c2.92-0.3,5.46,1.56,6.85,5.06
		c1.42,3.59,0.99,7.01-1.14,10.19c-2.37,3.51-6.86,3.63-9.43,0.28C188.75,109.52,187.9,107.16,188.04,104.49z"/>
	<path d="M134.55,86.79c-2.29-1.69-5.01-1.37-7.92-0.12c1.68-3.55,4.7-4.96,8.25-3.89c4.75,1.43,7.72,4.8,9.48,9.29
		c0.22,0.57,0,1.41-0.24,2.04c-0.42,1.08-1.03,2.09-1.54,3.14c-1.4,2.89-1.93,3.09-4.95,1.85c-3.6-1.49-5.77-4.34-5.28-7.67
		C132.59,89.85,133.75,88.41,134.55,86.79z"/>
	<path d="M193.52,81.24c-5.16-0.25-8.81,1.87-11.79,5.41c-0.61,0.73-1.13,1.55-1.82,2.19c-0.41,0.38-1.08,0.49-1.63,0.72
		c-0.18-0.59-0.62-1.22-0.51-1.75c1.05-5.11,3.95-8.94,8.96-10.36c2.74-0.77,5.87-0.35,8.8-0.14c0.67,0.05,1.75,1.38,1.77,2.15
		c0.04,1.23-0.93,2.05-2.41,1.8C194.31,81.16,193.72,81.24,193.52,81.24z"/>
	<path d="M262.12,84.21c-2.41-5.07-6.78-5.89-11.54-5.88c-0.8,0-1.61,0.1-2.39,0.29c-1.37,0.33-1.99-0.58-2.07-1.56
		c-0.05-0.61,0.61-1.6,1.2-1.88c4.21-1.98,12.13-0.47,14.92,3.56C263.64,80.76,263.64,82.92,262.12,84.21z"/>
	<path d="M160.57,124.33c7.53-5.71,19.43-5.97,25.49-1.86C177.24,121.66,168.83,122.05,160.57,124.33z"/>
</g>
</svg>
